<svg xmlns="http://www.w3.org/2000/svg" viewBox="0 0 256 256" width="256" height="256">
      
      
    <defs>
      <filter id="ink" x="-20%" y="-20%" width="140%" height="140%">
        <feTurbulence type="fractalNoise" baseFrequency="0.9" numOctaves="1" seed="3" result="noise"/>
        <feDisplacementMap in="SourceGraphic" in2="noise" scale="2" xChannelSelector="R" yChannelSelector="G"/>
      </filter>
    </defs>
    
      
      <circle cx="87.04" cy="133.12" r="69.12"
              fill="none" stroke="#e11d48" stroke-width="20.48" stroke-linecap="round"
              filter="url(#ink)"/>
      <path d="M 33.28 133.12 A 69.12 69.12 0 0 0 115.2 133.12"
            fill="none" stroke="#e11d48" stroke-width="20.48" stroke-linecap="round"
            stroke-dasharray="0 61.44" filter="url(#ink)"/>
    
      
      <path d="M 120.32 46.08
               Q 145.92 40.96, 153.6 48.64
               L 84.48 168.96
               Q 140.8 156.16, 189.44 161.28"
            fill="none" stroke="#ffffff" stroke-width="15.36" stroke-linecap="round" stroke-linejoin="round"
            filter="url(#ink)"/>
      <path d="M 140.8 128.0
               q 25.6 -17.92 40.96 -2.56
               q 15.36 17.92 -25.6 25.6
               q -40.96 15.36 -56.32 2.56"
            fill="none" stroke="#ffffff" stroke-width="14.08" stroke-linecap="round"
            filter="url(#ink)"/>
      <path d="M 179.2 117.76
               q 2.56 35.84 0.0 40.96
               q 20.48 -25.6 43.52 -17.92
               q 12.8 5.12 12.8 20.48"
            fill="none" stroke="#ffffff" stroke-width="14.08" stroke-linecap="round"
            filter="url(#ink)"/>
      <path d="M 61.44 163.84 Q 143.36 197.12 217.6 181.76"
            fill="none" stroke="#ffffff" stroke-width="12.8" stroke-linecap="round"
            filter="url(#ink)"/>
    
    </svg>